<svg xmlns="http://www.w3.org/2000/svg" viewBox="0 0 200 200" width="200" height="200">
  <defs>
    <radialGradient id="mg" cx="38%" cy="30%" r="78%">
      <stop offset="0%" stop-color="#ffd85e"/>
      <stop offset="45%" stop-color="#f9a03f"/>
      <stop offset="100%" stop-color="#d6482b"/>
    </radialGradient>
    <linearGradient id="ml" x1="0" y1="1" x2="1" y2="0">
      <stop offset="0%" stop-color="#1f7a44"/>
      <stop offset="100%" stop-color="#4bb26a"/>
    </linearGradient>
  </defs>
  <path d="M92 34c-12 4-25 12-36 24C36 82 26 108 32 132c6 25 30 41 58 40 26-1 51-17 63-42 11-23 9-49-6-66-14-16-36-22-55-30z" fill="url(#mg)"/>
  <path d="M72 60c-16 14-27 34-29 55-1 12 2 23 8 32-14-14-20-35-15-56 4-16 17-27 36-31z" fill="#ffffff" opacity=".22"/>
  <path d="M120 44c11-14 27-21 44-19-2 17-13 31-28 37-8 3-13 2-16-1-3-4-3-11 0-17z" fill="url(#ml)"/>
  <path d="M119 61c9-8 20-14 32-16-13 6-24 13-32 22z" fill="#0f5c31" opacity=".5"/>
</svg>
